<svg xmlns="http://www.w3.org/2000/svg" xmlns:xlink="http://www.w3.org/1999/xlink" aria-hidden="true" role="img" class="iconify iconify--logos" width="35.93" height="32" preserveAspectRatio="xMidYMid meet" viewBox="0 0 256 228"><path fill="#00D8FF" d="M210.483 73.824a171.49 171.49 0 0 0-8.24-2.597c.465-1.9.893-3.777 1.273-5.621c6.238-30.281 2.16-54.676-11.769-62.708c-13.355-7.7-35.196.329-57.254 19.526a171.23 171.23 0 0 0-6.375 5.848a155.866 155.866 0 0 0-4.241-3.917C100.759 3.829 77.587-4.822 63.673 3.233C50.33 10.957 46.379 33.89 51.995 62.588a170.974 170.974 0 0 0 1.892 8.48c-3.28.932-6.445 1.924-9.474 2.98C17.309 83.498 0 98.307 0 113.668c0 15.865 18.582 31.778 46.812 41.427a145.52 145.52 0 0 0 6.921 2.165a167.467 167.467 0 0 0-2.01 9.138c-5.354 28.2-1.173 50.591 12.134 58.266c13.744 7.926 36.812-.22 59.273-19.855a145.567 145.567 0 0 0 5.342-4.923a168.064 168.064 0 0 0 6.92 6.314c21.758 18.722 43.246 26.282 56.54 18.586c13.731-7.949 18.194-32.003 12.4-61.268a145.016 145.016 0 0 0-1.535-6.842c1.62-.48 3.21-.974 4.76-1.488c29.348-9.723 48.443-25.443 48.443-41.52c0-15.417-17.868-30.326-45.517-39.844Zm-6.365 70.984c-1.596.54-3.233 1.055-4.905 1.55c-3.172-10.56-7.356-21.526-12.47-32.61c4.887-11.193 8.912-22.178 11.908-32.79c8.234 2.266 16.068 4.937 23.342 7.986c19.072 8.139 30.986 18.189 30.986 27.847c0 10.133-12.478 20.553-32.261 28.017ZM137.287 184.65c-7.408 7.496-14.974 14.023-22.23 19.466c-16.433 12.048-31.96 17.51-41.988 11.752c-10.297-5.942-13.953-22.682-9.944-45.363a168.4 168.4 0 0 1 1.874-8.524c10.322 2.178 21.047 3.672 31.98 4.469a162.053 162.053 0 0 0 21.982 22.2Zm-63.603-26.36a148.36 148.36 0 0 1-29.03-4.07c1.98-8.58 4.658-17.501 7.975-26.567c3.29 6.21 6.77 12.376 10.44 18.456c3.69 6.11 7.51 12.07 11.46 17.838c-.283.11-.562.228-.845.343Zm-34.95-51.522c-19.19-7.502-30.86-17.507-30.86-27.216c0-9.298 11.04-19.084 29.292-26.394c2.804-1.13 5.728-2.188 8.748-3.177c2.952 10.567 6.95 21.51 11.904 32.567c-5.003 11.208-9.072 22.26-12.093 32.997c-2.42-.746-4.81-1.533-7.09-2.35c.033-.576.065-1.15.1-1.727Zm46.35-88.898c10.211-6.025 26.26-.58 43.016 13.67c5.713 4.88 11.456 10.67 17.002 17.116c-10.33 1.14-20.817 3.046-31.27 5.7a166.91 166.91 0 0 0-22.39-22.516c-2.127-1.787-4.296-3.507-6.5-5.155c.025-.275.05-.548.08-.82c.014-.686.03-1.369.062-2.995Zm22.89 122.498c-9.734-1.102-19.192-2.86-28.133-5.183c2.867-9.805 6.598-19.874 11.088-29.897c4.42 8.56 9.208 17.029 14.32 25.273a239.54 239.54 0 0 0 2.725 9.807Zm11.19-37.122c-5.159-8.83-10.03-17.895-14.493-27.052c4.5-9.2 9.4-18.265 14.6-27.094c5.174 8.795 10.07 17.838 14.57 27.014c-4.53 9.19-9.42 18.252-14.677 27.132Zm16.677 60.218c4.742-6.188 9.55-12.954 14.308-20.213c3.582-5.461 7.076-11.1 10.455-16.894c4.738 9.86 8.707 19.783 11.802 29.424c-9.11 2.449-18.631 4.274-28.317 5.48a232.54 232.54 0 0 0-8.248 2.203Zm30.97-101.498c-3.028-9.986-6.947-20.19-11.648-30.335c9.916 2.954 19.354 6.37 28.003 10.163c17.865 7.862 28.696 17.553 28.696 26.663c0 9.513-11.54 19.537-30.003 27.23c-2.463.994-5.01 1.944-7.629 2.854c-2.226-12.141-5.116-24.685-.09-36.575Z"/></svg>
